<mxfile host="app.diagrams.net" modified="2020-12-21T18:21:56.078Z" agent="5.0 (Windows NT 10.0; Win64; x64) AppleWebKit/537.36 (KHTML, like Gecko) Chrome/87.0.4280.88 Safari/537.36" etag="w0F6dSWCbQrIwe1pLYek" version="14.1.1" type="github" pages="2">
  <diagram id="YmT_-5XXrlfbfX3geV0W" name="Development roadmap">
    <mxGraphModel dx="1038" dy="548" grid="1" gridSize="10" guides="1" tooltips="1" connect="1" arrows="1" fold="1" page="1" pageScale="1" pageWidth="980" pageHeight="1390" math="0" shadow="0">
      <root>
        <mxCell id="0" />
        <mxCell id="1" parent="0" />
        <mxCell id="GxBvIsNK3n5-PWfmjEQZ-1" value="Development" style="rounded=0;whiteSpace=wrap;html=1;fillColor=#ffe6cc;strokeColor=#d79b00;fontSize=18;fontStyle=2" vertex="1" parent="1">
          <mxGeometry x="10" y="70" width="200" height="60" as="geometry" />
        </mxCell>
        <mxCell id="GxBvIsNK3n5-PWfmjEQZ-2" value="Testing" style="rounded=0;whiteSpace=wrap;html=1;fillColor=#f8cecc;strokeColor=#b85450;fontSize=18;fontStyle=2" vertex="1" parent="1">
          <mxGeometry x="219" y="70" width="200" height="60" as="geometry" />
        </mxCell>
        <mxCell id="GxBvIsNK3n5-PWfmjEQZ-3" value="Devops" style="rounded=0;whiteSpace=wrap;html=1;fillColor=#dae8fc;strokeColor=#6c8ebf;fontSize=18;fontStyle=2" vertex="1" parent="1">
          <mxGeometry x="428" y="70" width="200" height="60" as="geometry" />
        </mxCell>
        <mxCell id="GxBvIsNK3n5-PWfmjEQZ-4" value="Cloud" style="rounded=0;whiteSpace=wrap;html=1;fontSize=18;fontStyle=2" vertex="1" parent="1">
          <mxGeometry x="636" y="70" width="200" height="60" as="geometry" />
        </mxCell>
        <mxCell id="qvffc2qcnDFIXGGzzOqj-3" value="&lt;h1&gt;&lt;font style=&quot;font-size: 18px&quot;&gt;Git y Github&lt;/font&gt;&lt;/h1&gt;&lt;p&gt;Documentacion:&lt;/p&gt;&lt;p&gt;&lt;/p&gt;&lt;ul&gt;&lt;li&gt;&amp;nbsp;https://git-scm.com/book/es/v2&lt;/li&gt;&lt;/ul&gt;&lt;p&gt;&lt;/p&gt;" style="text;html=1;strokeColor=#d79b00;fillColor=#ffe6cc;spacing=5;spacingTop=-20;whiteSpace=wrap;overflow=hidden;rounded=0;" vertex="1" parent="1">
          <mxGeometry x="40" y="180" width="210" height="140" as="geometry" />
        </mxCell>
      </root>
    </mxGraphModel>
  </diagram>
  <diagram id="mBSHv5Fz7k-0G3hWtxlf" name="Key notes">
    <mxGraphModel dx="1038" dy="548" grid="1" gridSize="10" guides="1" tooltips="1" connect="1" arrows="1" fold="1" page="1" pageScale="1" pageWidth="850" pageHeight="1100" math="0" shadow="0">
      <root>
        <mxCell id="dvMPihn0DReouZ1j8ZHG-0" />
        <mxCell id="dvMPihn0DReouZ1j8ZHG-1" parent="dvMPihn0DReouZ1j8ZHG-0" />
      </root>
    </mxGraphModel>
  </diagram>
</mxfile>
